%TF.GenerationSoftware,KiCad,Pcbnew,9.0.2*%
%TF.CreationDate,2026-01-15T08:15:22+01:00*%
%TF.ProjectId,Needle,4e656564-6c65-42e6-9b69-6361645f7063,rev?*%
%TF.SameCoordinates,Original*%
%TF.FileFunction,Copper,L1,Top*%
%TF.FilePolarity,Positive*%
%FSLAX46Y46*%
G04 Gerber Fmt 4.6, Leading zero omitted, Abs format (unit mm)*
G04 Created by KiCad (PCBNEW 9.0.2) date 2026-01-15 08:15:22*
%MOMM*%
%LPD*%
G01*
G04 APERTURE LIST*
G04 Aperture macros list*
%AMRoundRect*
0 Rectangle with rounded corners*
0 $1 Rounding radius*
0 $2 $3 $4 $5 $6 $7 $8 $9 X,Y pos of 4 corners*
0 Add a 4 corners polygon primitive as box body*
4,1,4,$2,$3,$4,$5,$6,$7,$8,$9,$2,$3,0*
0 Add four circle primitives for the rounded corners*
1,1,$1+$1,$2,$3*
1,1,$1+$1,$4,$5*
1,1,$1+$1,$6,$7*
1,1,$1+$1,$8,$9*
0 Add four rect primitives between the rounded corners*
20,1,$1+$1,$2,$3,$4,$5,0*
20,1,$1+$1,$4,$5,$6,$7,0*
20,1,$1+$1,$6,$7,$8,$9,0*
20,1,$1+$1,$8,$9,$2,$3,0*%
G04 Aperture macros list end*
%TA.AperFunction,ConnectorPad*%
%ADD10C,1.300000*%
%TD*%
%TA.AperFunction,ComponentPad*%
%ADD11C,1.050000*%
%TD*%
%TA.AperFunction,ComponentPad*%
%ADD12RoundRect,0.250000X0.600000X-0.600000X0.600000X0.600000X-0.600000X0.600000X-0.600000X-0.600000X0*%
%TD*%
%TA.AperFunction,ComponentPad*%
%ADD13C,1.700000*%
%TD*%
%TA.AperFunction,ConnectorPad*%
%ADD14C,1.100000*%
%TD*%
%TA.AperFunction,ComponentPad*%
%ADD15C,0.800000*%
%TD*%
%TA.AperFunction,Conductor*%
%ADD16C,0.200000*%
%TD*%
G04 APERTURE END LIST*
D10*
%TO.P,REF\u002A\u002A,1*%
%TO.N,N/C*%
X133190000Y-91625000D03*
D11*
%TO.P,REF\u002A\u002A,NC*%
X133190000Y-91625000D03*
%TD*%
D10*
%TO.P,REF\u002A\u002A,1*%
%TO.N,N/C*%
X140810000Y-92640000D03*
D11*
%TO.P,REF\u002A\u002A,NC*%
X140810000Y-92640000D03*
%TD*%
D12*
%TO.P,REF\u002A\u002A,1*%
%TO.N,N/C*%
X131930000Y-50070000D03*
D13*
%TO.P,REF\u002A\u002A,2*%
X131930000Y-47530000D03*
%TO.P,REF\u002A\u002A,3*%
X134470000Y-50070000D03*
%TO.P,REF\u002A\u002A,4*%
X134470000Y-47530000D03*
%TO.P,REF\u002A\u002A,5*%
X137010000Y-50070000D03*
%TO.P,REF\u002A\u002A,6*%
X137010000Y-47530000D03*
%TO.P,REF\u002A\u002A,7*%
X139550000Y-50070000D03*
%TO.P,REF\u002A\u002A,8*%
X139550000Y-47530000D03*
%TO.P,REF\u002A\u002A,9*%
X142090000Y-50070000D03*
%TO.P,REF\u002A\u002A,10*%
X142090000Y-47530000D03*
%TD*%
D14*
%TO.P,REF\u002A\u002A,1*%
%TO.N,N/C*%
X134460000Y-90990000D03*
D15*
%TO.P,REF\u002A\u002A,10*%
X134460000Y-90990000D03*
%TD*%
D14*
%TO.P,REF\u002A\u002A,1*%
%TO.N,N/C*%
X138270000Y-90990000D03*
D15*
%TO.P,REF\u002A\u002A,7*%
X138270000Y-90990000D03*
%TD*%
D14*
%TO.P,REF\u002A\u002A,1*%
%TO.N,N/C*%
X139540000Y-90990000D03*
D15*
%TO.P,REF\u002A\u002A,6*%
X139540000Y-90990000D03*
%TD*%
%TO.P,REF\u002A\u002A,1*%
%TO.N,N/C*%
X134460000Y-92260000D03*
D14*
X134460000Y-92260000D03*
%TD*%
%TO.P,REF\u002A\u002A,1*%
%TO.N,N/C*%
X139540000Y-92260000D03*
D15*
%TO.P,REF\u002A\u002A,5*%
X139540000Y-92260000D03*
%TD*%
D10*
%TO.P,REF\u002A\u002A,1*%
%TO.N,N/C*%
X140810000Y-90610000D03*
D11*
%TO.P,REF\u002A\u002A,NC*%
X140810000Y-90610000D03*
%TD*%
D14*
%TO.P,REF\u002A\u002A,1*%
%TO.N,N/C*%
X135730000Y-90990000D03*
D15*
%TO.P,REF\u002A\u002A,9*%
X135730000Y-90990000D03*
%TD*%
D14*
%TO.P,REF\u002A\u002A,1*%
%TO.N,N/C*%
X138270000Y-92260000D03*
D15*
%TO.P,REF\u002A\u002A,4*%
X138270000Y-92260000D03*
%TD*%
D14*
%TO.P,REF\u002A\u002A,1*%
%TO.N,N/C*%
X137000000Y-92260000D03*
D15*
%TO.P,REF\u002A\u002A,3*%
X137000000Y-92260000D03*
%TD*%
D14*
%TO.P,REF\u002A\u002A,1*%
%TO.N,N/C*%
X137000000Y-90990000D03*
D15*
%TO.P,REF\u002A\u002A,8*%
X137000000Y-90990000D03*
%TD*%
D14*
%TO.P,REF\u002A\u002A,1*%
%TO.N,N/C*%
X135730000Y-92260000D03*
D15*
%TO.P,REF\u002A\u002A,2*%
X135730000Y-92260000D03*
%TD*%
D16*
%TO.N,*%
X138290000Y-48810000D02*
X139550000Y-50070000D01*
X138290000Y-46850000D02*
X138290000Y-48810000D01*
X133890000Y-46130000D02*
X137570000Y-46130000D01*
X137570000Y-46130000D02*
X138290000Y-46850000D01*
X133220000Y-46800000D02*
X133890000Y-46130000D01*
X133220000Y-50850000D02*
X133220000Y-46800000D01*
X137150000Y-54780000D02*
X133220000Y-50850000D01*
X138270000Y-90700000D02*
X137150000Y-89580000D01*
X137150000Y-89580000D02*
X137150000Y-54780000D01*
X138270000Y-90990000D02*
X138270000Y-90700000D01*
X131930000Y-51510000D02*
X131930000Y-50070000D01*
X136230000Y-55810000D02*
X131930000Y-51510000D01*
X132220000Y-91200000D02*
X132960000Y-90460000D01*
X132220000Y-92080000D02*
X132220000Y-91200000D01*
X136230000Y-87680000D02*
X136230000Y-55810000D01*
X132960000Y-90460000D02*
X133450000Y-90460000D01*
X132850000Y-92710000D02*
X132220000Y-92080000D01*
X134010000Y-92710000D02*
X132850000Y-92710000D01*
X133450000Y-90460000D02*
X136230000Y-87680000D01*
X134460000Y-92260000D02*
X134010000Y-92710000D01*
X131880000Y-92350000D02*
X132730000Y-93200000D01*
X134790000Y-93200000D02*
X135730000Y-92260000D01*
X130470000Y-50840000D02*
X135340000Y-55710000D01*
X131880000Y-91050000D02*
X131880000Y-92350000D01*
X132730000Y-93200000D02*
X134790000Y-93200000D01*
X130470000Y-48990000D02*
X130470000Y-50840000D01*
X135340000Y-55710000D02*
X135340000Y-87590000D01*
X131930000Y-47530000D02*
X130470000Y-48990000D01*
X135340000Y-87590000D02*
X131880000Y-91050000D01*
X137010000Y-52240000D02*
X137010000Y-50070000D01*
X139110000Y-54340000D02*
X137010000Y-52240000D01*
X139110000Y-88530000D02*
X139110000Y-54340000D01*
X140070000Y-89490000D02*
X139110000Y-88530000D01*
X141240000Y-89490000D02*
X140070000Y-89490000D01*
X142000000Y-93080000D02*
X142000000Y-90250000D01*
X142000000Y-90250000D02*
X141240000Y-89490000D01*
X141400000Y-93680000D02*
X142000000Y-93080000D01*
X139540000Y-93050000D02*
X140170000Y-93680000D01*
X140170000Y-93680000D02*
X141400000Y-93680000D01*
X139540000Y-92260000D02*
X139540000Y-93050000D01*
X135730000Y-48810000D02*
X137010000Y-47530000D01*
X138170000Y-54600000D02*
X135730000Y-52160000D01*
X135730000Y-52160000D02*
X135730000Y-48810000D01*
X138170000Y-89220000D02*
X138170000Y-54600000D01*
X139540000Y-90590000D02*
X138170000Y-89220000D01*
X139540000Y-90990000D02*
X139540000Y-90590000D01*
%TD*%
M02*
