%TF.GenerationSoftware,KiCad,Pcbnew,9.0.2*%
%TF.CreationDate,2026-01-15T08:15:22+01:00*%
%TF.ProjectId,Needle,4e656564-6c65-42e6-9b69-6361645f7063,rev?*%
%TF.SameCoordinates,Original*%
%TF.FileFunction,Profile,NP*%
%FSLAX46Y46*%
G04 Gerber Fmt 4.6, Leading zero omitted, Abs format (unit mm)*
G04 Created by KiCad (PCBNEW 9.0.2) date 2026-01-15 08:15:22*
%MOMM*%
%LPD*%
G01*
G04 APERTURE LIST*
%TA.AperFunction,Profile*%
%ADD10C,0.050000*%
%TD*%
G04 APERTURE END LIST*
D10*
X148210000Y-42510000D02*
X148320000Y-42540000D01*
X148460000Y-42600000D01*
X148590000Y-42680000D01*
X148707106Y-42792893D01*
X148800000Y-42900000D01*
X148890000Y-43030000D01*
X148950000Y-43170000D01*
X148990000Y-43320000D01*
X149000000Y-43500000D01*
X149000000Y-54060000D01*
X148970000Y-54240000D01*
X148920000Y-54390000D01*
X148860000Y-54520000D01*
X148770000Y-54650000D01*
X148630000Y-54770000D01*
X148430000Y-54900000D01*
X148220000Y-54970000D01*
X148000000Y-54999999D01*
X140800000Y-55000034D01*
X140660000Y-55010000D01*
X140540000Y-55040000D01*
X140390000Y-55100000D01*
X140230000Y-55190000D01*
X140100004Y-55292894D01*
X140020000Y-55390000D01*
X139920000Y-55530000D01*
X139850000Y-55690000D01*
X139820000Y-55830000D01*
X139807108Y-56000000D01*
X139810000Y-87840000D01*
X139810000Y-87970000D01*
X139840000Y-88070000D01*
X139870000Y-88200000D01*
X139930000Y-88340000D01*
X140030000Y-88490000D01*
X140130000Y-88610000D01*
X140310000Y-88730000D01*
X140460000Y-88800000D01*
X140640000Y-88840000D01*
X140800000Y-88850000D01*
X141530000Y-88850000D01*
X141630000Y-88860000D01*
X141750000Y-88880000D01*
X141840000Y-88900000D01*
X141950000Y-88940000D01*
X142040000Y-88980000D01*
X142120000Y-89030000D01*
X142190000Y-89080000D01*
X142250000Y-89130000D01*
X142320000Y-89200000D01*
X142390000Y-89290000D01*
X142440000Y-89380000D01*
X142480000Y-89460000D01*
X142520000Y-89550000D01*
X142550000Y-89630000D01*
X142570000Y-89730000D01*
X142572893Y-89857894D01*
X142590000Y-93330000D01*
X142580000Y-93420000D01*
X142560000Y-93560000D01*
X142510000Y-93720000D01*
X142450000Y-93830000D01*
X142380000Y-93940000D01*
X142270000Y-94070000D01*
X142160000Y-94150000D01*
X142050000Y-94210000D01*
X141910000Y-94280000D01*
X141750000Y-94320000D01*
X141572894Y-94332894D01*
X132490000Y-94350000D01*
X132420000Y-94340000D01*
X132320000Y-94320000D01*
X132220000Y-94290000D01*
X132140000Y-94260000D01*
X132030000Y-94210000D01*
X131950000Y-94170000D01*
X131870000Y-94120000D01*
X131775786Y-94039989D01*
X131690000Y-93930000D01*
X131620000Y-93830000D01*
X131580000Y-93750000D01*
X131540000Y-93660000D01*
X131520000Y-93600000D01*
X131490000Y-93470000D01*
X131482908Y-93332894D01*
X131482894Y-89882900D01*
X131480000Y-89800000D01*
X131500000Y-89710000D01*
X131540000Y-89560000D01*
X131570000Y-89480000D01*
X131620000Y-89380000D01*
X131680000Y-89280000D01*
X131750000Y-89190000D01*
X131830000Y-89120000D01*
X131920000Y-89050000D01*
X132010000Y-89000000D01*
X132100000Y-88960000D01*
X132180000Y-88930000D01*
X132280000Y-88900000D01*
X132482893Y-88882894D01*
X133202893Y-88882893D01*
X133330000Y-88880000D01*
X133510000Y-88860000D01*
X133630000Y-88800000D01*
X133770000Y-88720000D01*
X133930000Y-88590000D01*
X134020000Y-88470000D01*
X134110000Y-88310000D01*
X134180000Y-88140000D01*
X134200000Y-87958910D01*
X134200000Y-55920000D01*
X134190000Y-55800000D01*
X134150000Y-55640000D01*
X134060000Y-55470000D01*
X133907107Y-55292894D01*
X133720000Y-55140000D01*
X133490000Y-55040000D01*
X133200000Y-55000000D01*
X125870000Y-55000000D01*
X125730000Y-54970000D01*
X125490000Y-54870000D01*
X125292893Y-54707106D01*
X125100000Y-54450000D01*
X125020000Y-54250000D01*
X125000000Y-54000000D01*
X125000000Y-43420000D01*
X125040000Y-43250000D01*
X125090000Y-43090000D01*
X125170000Y-42940000D01*
X125300000Y-42780000D01*
X125440000Y-42680000D01*
X125560000Y-42610000D01*
X125680000Y-42560000D01*
X125810000Y-42520000D01*
X126000000Y-42500000D01*
X148070000Y-42500000D01*
X148210000Y-42510000D01*
M02*
