%TF.GenerationSoftware,KiCad,Pcbnew,9.0.2*%
%TF.CreationDate,2026-01-15T08:15:22+01:00*%
%TF.ProjectId,Needle,4e656564-6c65-42e6-9b69-6361645f7063,rev?*%
%TF.SameCoordinates,Original*%
%TF.FileFunction,Legend,Bot*%
%TF.FilePolarity,Positive*%
%FSLAX46Y46*%
G04 Gerber Fmt 4.6, Leading zero omitted, Abs format (unit mm)*
G04 Created by KiCad (PCBNEW 9.0.2) date 2026-01-15 08:15:22*
%MOMM*%
%LPD*%
G01*
G04 APERTURE LIST*
%ADD10C,0.200000*%
G04 APERTURE END LIST*
D10*
X137101695Y-58022054D02*
X136301695Y-58022054D01*
X137101695Y-58364911D02*
X136682647Y-58364911D01*
X136682647Y-58364911D02*
X136606457Y-58326816D01*
X136606457Y-58326816D02*
X136568361Y-58250625D01*
X136568361Y-58250625D02*
X136568361Y-58136339D01*
X136568361Y-58136339D02*
X136606457Y-58060149D01*
X136606457Y-58060149D02*
X136644552Y-58022054D01*
X136568361Y-58631578D02*
X136568361Y-58936340D01*
X136301695Y-58745864D02*
X136987409Y-58745864D01*
X136987409Y-58745864D02*
X137063600Y-58783959D01*
X137063600Y-58783959D02*
X137101695Y-58860149D01*
X137101695Y-58860149D02*
X137101695Y-58936340D01*
X136568361Y-59088721D02*
X136568361Y-59393483D01*
X136301695Y-59203007D02*
X136987409Y-59203007D01*
X136987409Y-59203007D02*
X137063600Y-59241102D01*
X137063600Y-59241102D02*
X137101695Y-59317292D01*
X137101695Y-59317292D02*
X137101695Y-59393483D01*
X136568361Y-59660150D02*
X137368361Y-59660150D01*
X136606457Y-59660150D02*
X136568361Y-59736340D01*
X136568361Y-59736340D02*
X136568361Y-59888721D01*
X136568361Y-59888721D02*
X136606457Y-59964912D01*
X136606457Y-59964912D02*
X136644552Y-60003007D01*
X136644552Y-60003007D02*
X136720742Y-60041102D01*
X136720742Y-60041102D02*
X136949314Y-60041102D01*
X136949314Y-60041102D02*
X137025504Y-60003007D01*
X137025504Y-60003007D02*
X137063600Y-59964912D01*
X137063600Y-59964912D02*
X137101695Y-59888721D01*
X137101695Y-59888721D02*
X137101695Y-59736340D01*
X137101695Y-59736340D02*
X137063600Y-59660150D01*
X137063600Y-60345864D02*
X137101695Y-60422055D01*
X137101695Y-60422055D02*
X137101695Y-60574436D01*
X137101695Y-60574436D02*
X137063600Y-60650626D01*
X137063600Y-60650626D02*
X136987409Y-60688722D01*
X136987409Y-60688722D02*
X136949314Y-60688722D01*
X136949314Y-60688722D02*
X136873123Y-60650626D01*
X136873123Y-60650626D02*
X136835028Y-60574436D01*
X136835028Y-60574436D02*
X136835028Y-60460150D01*
X136835028Y-60460150D02*
X136796933Y-60383960D01*
X136796933Y-60383960D02*
X136720742Y-60345864D01*
X136720742Y-60345864D02*
X136682647Y-60345864D01*
X136682647Y-60345864D02*
X136606457Y-60383960D01*
X136606457Y-60383960D02*
X136568361Y-60460150D01*
X136568361Y-60460150D02*
X136568361Y-60574436D01*
X136568361Y-60574436D02*
X136606457Y-60650626D01*
X137025504Y-61031579D02*
X137063600Y-61069674D01*
X137063600Y-61069674D02*
X137101695Y-61031579D01*
X137101695Y-61031579D02*
X137063600Y-60993483D01*
X137063600Y-60993483D02*
X137025504Y-61031579D01*
X137025504Y-61031579D02*
X137101695Y-61031579D01*
X136606457Y-61031579D02*
X136644552Y-61069674D01*
X136644552Y-61069674D02*
X136682647Y-61031579D01*
X136682647Y-61031579D02*
X136644552Y-60993483D01*
X136644552Y-60993483D02*
X136606457Y-61031579D01*
X136606457Y-61031579D02*
X136682647Y-61031579D01*
X136263600Y-61983959D02*
X137292171Y-61298245D01*
X136263600Y-62822054D02*
X137292171Y-62136340D01*
X136568361Y-63431578D02*
X137215980Y-63431578D01*
X137215980Y-63431578D02*
X137292171Y-63393483D01*
X137292171Y-63393483D02*
X137330266Y-63355387D01*
X137330266Y-63355387D02*
X137368361Y-63279197D01*
X137368361Y-63279197D02*
X137368361Y-63164911D01*
X137368361Y-63164911D02*
X137330266Y-63088721D01*
X137063600Y-63431578D02*
X137101695Y-63355387D01*
X137101695Y-63355387D02*
X137101695Y-63203006D01*
X137101695Y-63203006D02*
X137063600Y-63126816D01*
X137063600Y-63126816D02*
X137025504Y-63088721D01*
X137025504Y-63088721D02*
X136949314Y-63050625D01*
X136949314Y-63050625D02*
X136720742Y-63050625D01*
X136720742Y-63050625D02*
X136644552Y-63088721D01*
X136644552Y-63088721D02*
X136606457Y-63126816D01*
X136606457Y-63126816D02*
X136568361Y-63203006D01*
X136568361Y-63203006D02*
X136568361Y-63355387D01*
X136568361Y-63355387D02*
X136606457Y-63431578D01*
X137101695Y-63812531D02*
X136568361Y-63812531D01*
X136301695Y-63812531D02*
X136339790Y-63774435D01*
X136339790Y-63774435D02*
X136377885Y-63812531D01*
X136377885Y-63812531D02*
X136339790Y-63850626D01*
X136339790Y-63850626D02*
X136301695Y-63812531D01*
X136301695Y-63812531D02*
X136377885Y-63812531D01*
X136568361Y-64079197D02*
X136568361Y-64383959D01*
X136301695Y-64193483D02*
X136987409Y-64193483D01*
X136987409Y-64193483D02*
X137063600Y-64231578D01*
X137063600Y-64231578D02*
X137101695Y-64307768D01*
X137101695Y-64307768D02*
X137101695Y-64383959D01*
X137101695Y-64650626D02*
X136301695Y-64650626D01*
X137101695Y-64993483D02*
X136682647Y-64993483D01*
X136682647Y-64993483D02*
X136606457Y-64955388D01*
X136606457Y-64955388D02*
X136568361Y-64879197D01*
X136568361Y-64879197D02*
X136568361Y-64764911D01*
X136568361Y-64764911D02*
X136606457Y-64688721D01*
X136606457Y-64688721D02*
X136644552Y-64650626D01*
X136568361Y-65717293D02*
X137101695Y-65717293D01*
X136568361Y-65374436D02*
X136987409Y-65374436D01*
X136987409Y-65374436D02*
X137063600Y-65412531D01*
X137063600Y-65412531D02*
X137101695Y-65488721D01*
X137101695Y-65488721D02*
X137101695Y-65603007D01*
X137101695Y-65603007D02*
X137063600Y-65679198D01*
X137063600Y-65679198D02*
X137025504Y-65717293D01*
X137101695Y-66098246D02*
X136301695Y-66098246D01*
X136606457Y-66098246D02*
X136568361Y-66174436D01*
X136568361Y-66174436D02*
X136568361Y-66326817D01*
X136568361Y-66326817D02*
X136606457Y-66403008D01*
X136606457Y-66403008D02*
X136644552Y-66441103D01*
X136644552Y-66441103D02*
X136720742Y-66479198D01*
X136720742Y-66479198D02*
X136949314Y-66479198D01*
X136949314Y-66479198D02*
X137025504Y-66441103D01*
X137025504Y-66441103D02*
X137063600Y-66403008D01*
X137063600Y-66403008D02*
X137101695Y-66326817D01*
X137101695Y-66326817D02*
X137101695Y-66174436D01*
X137101695Y-66174436D02*
X137063600Y-66098246D01*
X137025504Y-66822056D02*
X137063600Y-66860151D01*
X137063600Y-66860151D02*
X137101695Y-66822056D01*
X137101695Y-66822056D02*
X137063600Y-66783960D01*
X137063600Y-66783960D02*
X137025504Y-66822056D01*
X137025504Y-66822056D02*
X137101695Y-66822056D01*
X137063600Y-67545865D02*
X137101695Y-67469674D01*
X137101695Y-67469674D02*
X137101695Y-67317293D01*
X137101695Y-67317293D02*
X137063600Y-67241103D01*
X137063600Y-67241103D02*
X137025504Y-67203008D01*
X137025504Y-67203008D02*
X136949314Y-67164912D01*
X136949314Y-67164912D02*
X136720742Y-67164912D01*
X136720742Y-67164912D02*
X136644552Y-67203008D01*
X136644552Y-67203008D02*
X136606457Y-67241103D01*
X136606457Y-67241103D02*
X136568361Y-67317293D01*
X136568361Y-67317293D02*
X136568361Y-67469674D01*
X136568361Y-67469674D02*
X136606457Y-67545865D01*
X137101695Y-68003007D02*
X137063600Y-67926817D01*
X137063600Y-67926817D02*
X137025504Y-67888722D01*
X137025504Y-67888722D02*
X136949314Y-67850626D01*
X136949314Y-67850626D02*
X136720742Y-67850626D01*
X136720742Y-67850626D02*
X136644552Y-67888722D01*
X136644552Y-67888722D02*
X136606457Y-67926817D01*
X136606457Y-67926817D02*
X136568361Y-68003007D01*
X136568361Y-68003007D02*
X136568361Y-68117293D01*
X136568361Y-68117293D02*
X136606457Y-68193484D01*
X136606457Y-68193484D02*
X136644552Y-68231579D01*
X136644552Y-68231579D02*
X136720742Y-68269674D01*
X136720742Y-68269674D02*
X136949314Y-68269674D01*
X136949314Y-68269674D02*
X137025504Y-68231579D01*
X137025504Y-68231579D02*
X137063600Y-68193484D01*
X137063600Y-68193484D02*
X137101695Y-68117293D01*
X137101695Y-68117293D02*
X137101695Y-68003007D01*
X137101695Y-68612532D02*
X136568361Y-68612532D01*
X136644552Y-68612532D02*
X136606457Y-68650627D01*
X136606457Y-68650627D02*
X136568361Y-68726817D01*
X136568361Y-68726817D02*
X136568361Y-68841103D01*
X136568361Y-68841103D02*
X136606457Y-68917294D01*
X136606457Y-68917294D02*
X136682647Y-68955389D01*
X136682647Y-68955389D02*
X137101695Y-68955389D01*
X136682647Y-68955389D02*
X136606457Y-68993484D01*
X136606457Y-68993484D02*
X136568361Y-69069675D01*
X136568361Y-69069675D02*
X136568361Y-69183960D01*
X136568361Y-69183960D02*
X136606457Y-69260151D01*
X136606457Y-69260151D02*
X136682647Y-69298246D01*
X136682647Y-69298246D02*
X137101695Y-69298246D01*
X136263600Y-70250627D02*
X137292171Y-69564913D01*
X137063600Y-70822056D02*
X137101695Y-70745865D01*
X137101695Y-70745865D02*
X137101695Y-70593484D01*
X137101695Y-70593484D02*
X137063600Y-70517294D01*
X137063600Y-70517294D02*
X136987409Y-70479198D01*
X136987409Y-70479198D02*
X136682647Y-70479198D01*
X136682647Y-70479198D02*
X136606457Y-70517294D01*
X136606457Y-70517294D02*
X136568361Y-70593484D01*
X136568361Y-70593484D02*
X136568361Y-70745865D01*
X136568361Y-70745865D02*
X136606457Y-70822056D01*
X136606457Y-70822056D02*
X136682647Y-70860151D01*
X136682647Y-70860151D02*
X136758838Y-70860151D01*
X136758838Y-70860151D02*
X136835028Y-70479198D01*
X136568361Y-71126817D02*
X137101695Y-71317293D01*
X137101695Y-71317293D02*
X136568361Y-71507770D01*
X137063600Y-72117294D02*
X137101695Y-72041103D01*
X137101695Y-72041103D02*
X137101695Y-71888722D01*
X137101695Y-71888722D02*
X137063600Y-71812532D01*
X137063600Y-71812532D02*
X136987409Y-71774436D01*
X136987409Y-71774436D02*
X136682647Y-71774436D01*
X136682647Y-71774436D02*
X136606457Y-71812532D01*
X136606457Y-71812532D02*
X136568361Y-71888722D01*
X136568361Y-71888722D02*
X136568361Y-72041103D01*
X136568361Y-72041103D02*
X136606457Y-72117294D01*
X136606457Y-72117294D02*
X136682647Y-72155389D01*
X136682647Y-72155389D02*
X136758838Y-72155389D01*
X136758838Y-72155389D02*
X136835028Y-71774436D01*
X136568361Y-72498246D02*
X137101695Y-72498246D01*
X136644552Y-72498246D02*
X136606457Y-72536341D01*
X136606457Y-72536341D02*
X136568361Y-72612531D01*
X136568361Y-72612531D02*
X136568361Y-72726817D01*
X136568361Y-72726817D02*
X136606457Y-72803008D01*
X136606457Y-72803008D02*
X136682647Y-72841103D01*
X136682647Y-72841103D02*
X137101695Y-72841103D01*
X136796933Y-73222056D02*
X136796933Y-73831580D01*
X136568361Y-74212532D02*
X137101695Y-74212532D01*
X136644552Y-74212532D02*
X136606457Y-74250627D01*
X136606457Y-74250627D02*
X136568361Y-74326817D01*
X136568361Y-74326817D02*
X136568361Y-74441103D01*
X136568361Y-74441103D02*
X136606457Y-74517294D01*
X136606457Y-74517294D02*
X136682647Y-74555389D01*
X136682647Y-74555389D02*
X137101695Y-74555389D01*
X137101695Y-75050627D02*
X137063600Y-74974437D01*
X137063600Y-74974437D02*
X137025504Y-74936342D01*
X137025504Y-74936342D02*
X136949314Y-74898246D01*
X136949314Y-74898246D02*
X136720742Y-74898246D01*
X136720742Y-74898246D02*
X136644552Y-74936342D01*
X136644552Y-74936342D02*
X136606457Y-74974437D01*
X136606457Y-74974437D02*
X136568361Y-75050627D01*
X136568361Y-75050627D02*
X136568361Y-75164913D01*
X136568361Y-75164913D02*
X136606457Y-75241104D01*
X136606457Y-75241104D02*
X136644552Y-75279199D01*
X136644552Y-75279199D02*
X136720742Y-75317294D01*
X136720742Y-75317294D02*
X136949314Y-75317294D01*
X136949314Y-75317294D02*
X137025504Y-75279199D01*
X137025504Y-75279199D02*
X137063600Y-75241104D01*
X137063600Y-75241104D02*
X137101695Y-75164913D01*
X137101695Y-75164913D02*
X137101695Y-75050627D01*
X136568361Y-75545866D02*
X136568361Y-75850628D01*
X136301695Y-75660152D02*
X136987409Y-75660152D01*
X136987409Y-75660152D02*
X137063600Y-75698247D01*
X137063600Y-75698247D02*
X137101695Y-75774437D01*
X137101695Y-75774437D02*
X137101695Y-75850628D01*
X137101695Y-76231580D02*
X137063600Y-76155390D01*
X137063600Y-76155390D02*
X137025504Y-76117295D01*
X137025504Y-76117295D02*
X136949314Y-76079199D01*
X136949314Y-76079199D02*
X136720742Y-76079199D01*
X136720742Y-76079199D02*
X136644552Y-76117295D01*
X136644552Y-76117295D02*
X136606457Y-76155390D01*
X136606457Y-76155390D02*
X136568361Y-76231580D01*
X136568361Y-76231580D02*
X136568361Y-76345866D01*
X136568361Y-76345866D02*
X136606457Y-76422057D01*
X136606457Y-76422057D02*
X136644552Y-76460152D01*
X136644552Y-76460152D02*
X136720742Y-76498247D01*
X136720742Y-76498247D02*
X136949314Y-76498247D01*
X136949314Y-76498247D02*
X137025504Y-76460152D01*
X137025504Y-76460152D02*
X137063600Y-76422057D01*
X137063600Y-76422057D02*
X137101695Y-76345866D01*
X137101695Y-76345866D02*
X137101695Y-76231580D01*
X137101695Y-77183962D02*
X136301695Y-77183962D01*
X137063600Y-77183962D02*
X137101695Y-77107771D01*
X137101695Y-77107771D02*
X137101695Y-76955390D01*
X137101695Y-76955390D02*
X137063600Y-76879200D01*
X137063600Y-76879200D02*
X137025504Y-76841105D01*
X137025504Y-76841105D02*
X136949314Y-76803009D01*
X136949314Y-76803009D02*
X136720742Y-76803009D01*
X136720742Y-76803009D02*
X136644552Y-76841105D01*
X136644552Y-76841105D02*
X136606457Y-76879200D01*
X136606457Y-76879200D02*
X136568361Y-76955390D01*
X136568361Y-76955390D02*
X136568361Y-77107771D01*
X136568361Y-77107771D02*
X136606457Y-77183962D01*
X137101695Y-77907772D02*
X136301695Y-77907772D01*
X137063600Y-77907772D02*
X137101695Y-77831581D01*
X137101695Y-77831581D02*
X137101695Y-77679200D01*
X137101695Y-77679200D02*
X137063600Y-77603010D01*
X137063600Y-77603010D02*
X137025504Y-77564915D01*
X137025504Y-77564915D02*
X136949314Y-77526819D01*
X136949314Y-77526819D02*
X136720742Y-77526819D01*
X136720742Y-77526819D02*
X136644552Y-77564915D01*
X136644552Y-77564915D02*
X136606457Y-77603010D01*
X136606457Y-77603010D02*
X136568361Y-77679200D01*
X136568361Y-77679200D02*
X136568361Y-77831581D01*
X136568361Y-77831581D02*
X136606457Y-77907772D01*
X136263600Y-78860153D02*
X137292171Y-78174439D01*
X136301695Y-79355391D02*
X136873123Y-79355391D01*
X136873123Y-79355391D02*
X136987409Y-79317296D01*
X136987409Y-79317296D02*
X137063600Y-79241105D01*
X137063600Y-79241105D02*
X137101695Y-79126820D01*
X137101695Y-79126820D02*
X137101695Y-79050629D01*
X136301695Y-79622058D02*
X136301695Y-80079201D01*
X137101695Y-79850629D02*
X136301695Y-79850629D01*
X136873123Y-80307772D02*
X136873123Y-80688725D01*
X137101695Y-80231582D02*
X136301695Y-80498249D01*
X136301695Y-80498249D02*
X137101695Y-80764915D01*
X136339790Y-81450629D02*
X136301695Y-81374439D01*
X136301695Y-81374439D02*
X136301695Y-81260153D01*
X136301695Y-81260153D02*
X136339790Y-81145867D01*
X136339790Y-81145867D02*
X136415980Y-81069677D01*
X136415980Y-81069677D02*
X136492171Y-81031582D01*
X136492171Y-81031582D02*
X136644552Y-80993486D01*
X136644552Y-80993486D02*
X136758838Y-80993486D01*
X136758838Y-80993486D02*
X136911219Y-81031582D01*
X136911219Y-81031582D02*
X136987409Y-81069677D01*
X136987409Y-81069677D02*
X137063600Y-81145867D01*
X137063600Y-81145867D02*
X137101695Y-81260153D01*
X137101695Y-81260153D02*
X137101695Y-81336344D01*
X137101695Y-81336344D02*
X137063600Y-81450629D01*
X137063600Y-81450629D02*
X137025504Y-81488725D01*
X137025504Y-81488725D02*
X136758838Y-81488725D01*
X136758838Y-81488725D02*
X136758838Y-81336344D01*
X137177885Y-81641106D02*
X137177885Y-82250629D01*
X137101695Y-82441106D02*
X136301695Y-82441106D01*
X136301695Y-82441106D02*
X137101695Y-82898249D01*
X137101695Y-82898249D02*
X136301695Y-82898249D01*
X137063600Y-83583963D02*
X137101695Y-83507772D01*
X137101695Y-83507772D02*
X137101695Y-83355391D01*
X137101695Y-83355391D02*
X137063600Y-83279201D01*
X137063600Y-83279201D02*
X136987409Y-83241105D01*
X136987409Y-83241105D02*
X136682647Y-83241105D01*
X136682647Y-83241105D02*
X136606457Y-83279201D01*
X136606457Y-83279201D02*
X136568361Y-83355391D01*
X136568361Y-83355391D02*
X136568361Y-83507772D01*
X136568361Y-83507772D02*
X136606457Y-83583963D01*
X136606457Y-83583963D02*
X136682647Y-83622058D01*
X136682647Y-83622058D02*
X136758838Y-83622058D01*
X136758838Y-83622058D02*
X136835028Y-83241105D01*
X137063600Y-84269677D02*
X137101695Y-84193486D01*
X137101695Y-84193486D02*
X137101695Y-84041105D01*
X137101695Y-84041105D02*
X137063600Y-83964915D01*
X137063600Y-83964915D02*
X136987409Y-83926819D01*
X136987409Y-83926819D02*
X136682647Y-83926819D01*
X136682647Y-83926819D02*
X136606457Y-83964915D01*
X136606457Y-83964915D02*
X136568361Y-84041105D01*
X136568361Y-84041105D02*
X136568361Y-84193486D01*
X136568361Y-84193486D02*
X136606457Y-84269677D01*
X136606457Y-84269677D02*
X136682647Y-84307772D01*
X136682647Y-84307772D02*
X136758838Y-84307772D01*
X136758838Y-84307772D02*
X136835028Y-83926819D01*
X137101695Y-84993486D02*
X136301695Y-84993486D01*
X137063600Y-84993486D02*
X137101695Y-84917295D01*
X137101695Y-84917295D02*
X137101695Y-84764914D01*
X137101695Y-84764914D02*
X137063600Y-84688724D01*
X137063600Y-84688724D02*
X137025504Y-84650629D01*
X137025504Y-84650629D02*
X136949314Y-84612533D01*
X136949314Y-84612533D02*
X136720742Y-84612533D01*
X136720742Y-84612533D02*
X136644552Y-84650629D01*
X136644552Y-84650629D02*
X136606457Y-84688724D01*
X136606457Y-84688724D02*
X136568361Y-84764914D01*
X136568361Y-84764914D02*
X136568361Y-84917295D01*
X136568361Y-84917295D02*
X136606457Y-84993486D01*
X137101695Y-85488724D02*
X137063600Y-85412534D01*
X137063600Y-85412534D02*
X136987409Y-85374439D01*
X136987409Y-85374439D02*
X136301695Y-85374439D01*
X137063600Y-86098249D02*
X137101695Y-86022058D01*
X137101695Y-86022058D02*
X137101695Y-85869677D01*
X137101695Y-85869677D02*
X137063600Y-85793487D01*
X137063600Y-85793487D02*
X136987409Y-85755391D01*
X136987409Y-85755391D02*
X136682647Y-85755391D01*
X136682647Y-85755391D02*
X136606457Y-85793487D01*
X136606457Y-85793487D02*
X136568361Y-85869677D01*
X136568361Y-85869677D02*
X136568361Y-86022058D01*
X136568361Y-86022058D02*
X136606457Y-86098249D01*
X136606457Y-86098249D02*
X136682647Y-86136344D01*
X136682647Y-86136344D02*
X136758838Y-86136344D01*
X136758838Y-86136344D02*
X136835028Y-85755391D01*
M02*
